<svg height="520" viewBox="0 0 924 520" width="924" xmlns="http://www.w3.org/2000/svg"><g fill="none" fill-rule="evenodd"><path d="m0 0h924v520h-924z" fill="#1c304b"/><g fill-rule="nonzero" transform="translate(60 91)"><path d="m247.372257 166.873009c0 68.470754-54.329878 124.029881-121.385674 124.029881s-121.38567438-55.559127-121.38567438-124.029881c0-68.4707539 54.32987838-124.0298801 121.38567438-124.0298801s121.385674 55.5591262 121.385674 124.0298801" fill="#d33833"/><path d="m9.59338394 197.587034s-8.81025056-129.3119107 110.51969806-133.0288945l-8.320791-13.8897815-64.7063964 21.7150106-18.5015262 21.2259337-16.1521259 30.9096547-9.2018173 35.996054 2.74096684 24.062579" fill="#ef3d3a"/><path d="m42.8765527 82.2627202c-21.242493 21.8128258-34.45786884 51.8421418-34.45786884 85.0993658 0 33.257224 13.21537584 63.28654 34.45786884 85.099366 21.3403847 21.812826 50.6099948 35.21353 83.1100303 35.21353 32.500035 0 61.769645-13.400704 83.11003-35.21353 21.242493-21.812826 34.457869-51.842142 34.457869-85.099366 0-33.257224-13.215376-63.28654-34.457869-85.0993658-21.340385-21.7150106-50.609995-35.2135306-83.11003-35.2135306-32.4021438 0-61.7696456 13.4007047-83.1100303 35.2135306zm-5.384042 175.3829458c-22.6129765-23.084426-36.61148564-55.070049-36.61148564-90.28358 0-35.213531 13.99850914-67.199154 36.61148564-90.3813954 22.6129764-23.0844256 53.9383117-37.463284 88.4940723-37.463284 34.55576 0 65.881096 14.3788584 88.494072 37.463284 22.612977 23.0844264 36.611486 55.0700494 36.611486 90.3813954 0 35.213531-13.998509 67.199154-36.611486 90.28358-22.612976 23.182241-53.938312 37.463284-88.494072 37.463284-34.5557606 0-65.8810959-14.281043-88.4940723-37.463284z" fill="#231f20"/><path d="m177.086036 167.557717-18.501526 2.73883-24.962377 2.836645-16.152126.391262-15.760559-.489077-12.0406757-3.716983-10.6701924-11.542214-8.3207921-23.573502-1.8599418-5.086399-11.061759-3.716983-6.4608505-10.661875-4.6009085-15.2591968 5.0903669-13.4007048 12.0406757-4.2060606 9.6912757 4.597322 4.6009085 10.1727977 5.5798254-.8803382 1.8599418-2.3475687-1.8599418-10.6618746-.4894583-13.4007047 2.7409668-18.4871036-.0978917-10.5640591 8.4186839-13.4985202 14.7816421-10.6618745 25.843402-11.05313603 28.68226 4.20606061 24.962377 17.99802672 11.551217 18.4871036 7.439767 13.4007048 1.859942 33.2572234-5.579825 28.659901-10.180734 25.431995-9.593384 13.596335" fill="#f0d6b7"/><path d="m161.423368 247.472869-66.0768787 2.738829v11.053136l5.5798247 38.832699-2.7409662 3.227907-46.2048695-15.748273-3.2304252-5.575476-4.6009087-52.233403-10.8659757-31.300916-2.3494001-7.433968 37.0030523-25.431994 11.5512174-4.597323 10.180734 12.520367 8.8102505 7.825229 10.1807342 3.227907 4.600909 1.369415 5.579825 24.062579 4.209341 5.086399 10.670193-3.716984-7.439767 14.378859 40.135586 18.97618z" fill="#335061"/><path d="m51.7846949 86.2731501 12.0406757-4.2060606 9.6912757 4.5973221 4.6009085 10.1727977 5.5798254-.8803382 1.3704835-5.5754758-2.7409669-10.6618745 2.7409669-25.4319944-2.3494002-13.8897815 8.3207922-9.683721 18.0120673-14.281043-5.090367-6.9448907-25.4518344 12.5203665-10.6701924 8.3143058-5.971392 12.9116279-9.2018173 12.5203664-2.7409667 14.7701199z" fill="#6d6b6d"/><path d="m70.7756794 42.8431289s6.9503088-17.1176885 34.6536516-25.4319943c27.703344-8.31430584 1.370484-5.9667372 1.370484-5.9667372l-30.0527435 11.5422129-11.5512175 11.5422128-5.0903669 9.1946442z" fill="#dcd9d8"/><path d="m56.8750619 83.0452432s-9.6912756-32.3768852 27.3117767-36.9742073l-1.3704835-5.5754756-25.4518349 5.966737-7.439767 24.0625794 1.8599417 15.7482734z" fill="#dcd9d8"/><path d="m71.6567044 125.986187 6.0692838-5.868921s2.7409668.293445 3.2304252 3.521353c.4894584 3.227907 1.8599417 32.376885 21.7319516 48.027343 1.859942 1.46723-14.7816428-2.347568-14.7816428-2.347568l-14.7816427-23.084427" fill="#f7e4cd"/><path d="m156.724568 117.182805s1.076809-13.987597 4.894584-12.911629c3.817775 1.07597 3.817775 4.890769 3.817775 4.890769s-9.201817 5.868922-8.712359 8.02086" fill="#f7e4cd"/><path d="m195.098104 65.9275546s-7.63555 1.5650458-8.320793 8.3143059c-.685241 6.74926 8.320793 1.3694151 9.691276.8803383" fill="#f7e4cd"/><path d="m139.201958 66.4166314s-10.180733 1.3694151-10.180733 7.8252291c0 6.4558139 11.551217 5.9667371 14.781642 3.2279069" fill="#f7e4cd"/><path d="m76.3555047 96.4459478s-17.5226094-10.6618745-19.3825511-.4890767c-1.8599418 10.1727979-5.9713921 17.5089499 2.7409668 28.1708239l-5.971392-1.858491-5.5798253-14.281043-1.8599419-13.8897818 10.6701924-11.053136 12.0406757.8803382 6.9503088 5.5754757z" fill="#f7e4cd"/><path d="m84.676297 67.2969697s7.8313338-40.691191 47.575353-48.51642c32.695818-6.455814 49.924753 1.3694151 56.385604 8.8033826 0 0-29.171719-34.62663843-56.875063-24.06257924-27.703343 10.66187454-48.0648108 30.02931644-47.5753524 42.45186754.7831334 21.3237491.4894584 21.3237491.4894584 21.3237491" fill="#f7e4cd"/><path d="m191.867679 32.1812544s-13.411159-.4890768-13.900618 11.5422129c0 0 0 1.8584918.881025 3.7169837 0 0 10.670193-12.0312897 17.131043-5.5754756" fill="#f7e4cd"/><path d="m133.230566 48.7120508s-2.349399-18.3892883-18.012067-7.7274137c-10.180734 6.9448907-9.201817 16.6286117-7.439767 18.4871036 1.859942 1.8584919 1.370483 5.5754756 2.740966 3.0322763 1.370484-2.5431995.978917-10.8575053 6.069284-13.2050741 4.992475-2.3475687 13.41116-4.8907681 16.641584-.5868921" fill="#f7e4cd"/><path d="m89.766664 173.524454-43.4639028 19.367442s18.0120678 71.600845 8.8102506 93.804933l-6.4608504-2.347569-.4894583-27.290486-12.0406758-51.646512-5.090367-14.281043 45.3238444-30.518393z" fill="#49728b"/><path d="m94.1717893 213.139676 6.1671747 7.531783v27.681748h-7.3418748s-.8810251-19.367443-.8810251-21.715011.8810251-10.661875.8810251-10.661875" fill="#49728b"/><path d="m94.3675726 252.559267-20.8509263.880338 5.971392 4.206061 14.7816426 2.347569" fill="#49728b"/><path d="m165.534818 247.961945 17.131043-.489076 4.209342 42.451867-17.522609 2.347569z" fill="#335061"/><path d="m170.135727 247.961945 25.843402-1.369415s10.670192-26.801409 10.670192-28.170825c0-1.369415 9.201818-38.832699 9.201818-38.832699l-20.850927-21.71501-4.209342-3.716984-11.061759 11.053136v42.940945z" fill="#335061"/><path d="m181.686944 244.734038-16.152126 3.227907 2.349401 12.911628c5.971392 2.73883 16.152126-4.597322 16.152126-4.597322" fill="#49728b"/><path d="m182.176403 163.840733 32.402144 24.062579.881024-11.053135-24.472917-22.59535z" fill="#49728b"/><path d="m110.421807 338.930232-9.593384-38.832699-4.796692-28.659901-.7831334-21.225934 43.3660114-2.347568h26.920209l-2.447291 48.51642 4.209342 37.463284-.489458 6.944891-35.143111 2.738829z" fill="#fff"/><path d="m159.563427 247.472869s-2.3494 48.027343 4.600908 82.26272c0 0-13.900617 8.803382-34.164193 11.053136l38.862994-1.369415 4.600909-2.738831-5.579826-75.709091-1.468375-16.23735" fill="#dcd9d8"/><path d="m187.560445 286.305568 18.012068-5.086399 34.164193-1.858492 5.090367-15.748274-9.201816-27.290486-10.670193-1.369416-14.781642 4.597322-14.096401 6.944892-7.537659-1.369416-5.873501 2.34757" fill="#fff"/><path d="m187.26677 277.013108s12.040675-5.575476 13.900618-5.086399l-5.090367-25.431994 5.971392-2.347569s4.209342 24.06258 4.209342 26.801409c0 0 25.843402 1.369415 28.192801 1.369415 0 0 5.579826-10.661874 4.209343-21.715011l5.090366 14.77012.489458 8.314307-7.439767 11.053136-8.320791 1.858491-13.900618-.489077-4.600909-5.966737-16.152126 2.347569-5.090367 1.858492" fill="#dcd9d8"/><path d="m169.058919 244.244961-10.180735-25.823256-10.670191-15.259197s2.3494-6.455813 5.579825-6.455813h10.670192l10.180734 3.716984-.881025 17.117688z" fill="#fff"/><path d="m171.114644 235.441579s-12.921701-24.942918-12.921701-28.659902c0 0 2.3494-5.575476 5.579826-4.20606 3.230424 1.369415 10.180734 5.086399 10.180734 5.086399v-8.803383l-15.76056-3.227908-10.670192 1.369416 18.012067 42.647498 3.719884.489077" fill="#dcd9d8"/><path d="m114.533257 174.502607-12.823809-1.369415-12.0406757-3.716984v4.206061l5.8735004 6.455814 18.5015263 8.314306" fill="#fff"/><path d="m93.8781142 175.872023s14.2921848 5.966737 18.9909848 4.597321l.489459 5.575476-12.921702-2.73883-7.8313335-5.575475z" fill="#dcd9d8"/><path d="m187.560445 198.27174c-7.831334-.19563-14.977426-1.173784-21.144601-2.93446.391567-2.5432-.391567-4.988584.293675-6.847075 1.762049-1.2716 4.600909-1.2716 7.243984-1.565046-2.251509-1.075969-5.481935-1.565046-8.027117-.880339-.097892-1.760676-.881026-2.836645-1.370484-4.20606 4.405126-1.565046 14.781643-11.835659 20.655143-8.509936 2.838859 1.66286 4.013558 10.857504 4.209342 15.454826.195784 3.716985-.391567 7.433968-1.859942 9.48809" fill="#d33833"/><path d="m187.560445 198.27174c-7.831334-.19563-14.977426-1.173784-21.144601-2.93446.391567-2.5432-.391567-4.988584.293675-6.847075 1.762049-1.2716 4.600909-1.2716 7.243984-1.565046-2.251509-1.075969-5.481935-1.565046-8.027117-.880339-.097892-1.760676-.881026-2.836645-1.370484-4.20606 4.405126-1.565046 14.781643-11.835659 20.655143-8.509936 2.838859 1.66286 4.013558 10.857504 4.209342 15.454826.195784 3.716985-.391567 7.433968-1.859942 9.48809z" stroke="#d33833" stroke-width="2"/><path d="m150.067934 185.457929c0 .586891 0 1.173783-.097891 1.760676-2.447292 1.565045-6.362959 1.565045-9.103926 2.93446 3.915667.195631 7.0482 1.173785 9.789168 2.445384-.097892 1.467232-.097892 3.032276-.195784 4.499507-4.503017 3.032276-8.614467 7.629598-13.900617 10.56406-2.545184 1.369415-11.257543 4.890768-13.900618 4.20606-1.468375-.391261-1.664159-2.249753-2.251508-4.01043-1.272592-3.716983-4.209342-9.781536-4.503017-15.454827-.293676-7.140522-1.076808-19.171811 6.656633-17.704581 6.265067 1.173785 13.509052 4.01043 18.305743 6.651445 3.034642 1.760676 4.698801 3.716983 9.201817 4.108246" fill="#d33833"/><path d="m150.067934 185.457929c0 .586891 0 1.173783-.097891 1.760676-2.447292 1.565045-6.362959 1.565045-9.103926 2.93446 3.915667.195631 7.0482 1.173785 9.789168 2.445384-.097892 1.467232-.097892 3.032276-.195784 4.499507-4.503017 3.032276-8.614467 7.629598-13.900617 10.56406-2.545184 1.369415-11.257543 4.890768-13.900618 4.20606-1.468375-.391261-1.664159-2.249753-2.251508-4.01043-1.272592-3.716983-4.209342-9.781536-4.503017-15.454827-.293676-7.140522-1.076808-19.171811 6.656633-17.704581 6.265067 1.173785 13.509052 4.01043 18.305743 6.651445 3.034642 1.760676 4.698801 3.716983 9.201817 4.108246z" stroke="#d33833" stroke-width="2"/><path d="m154.473059 193.967865c-.685241-3.912615-1.468375-4.988583-1.174699-8.412122 10.474409-6.94489 12.33435 11.933475 1.174699 8.412122" fill="#d33833"/><path d="m154.473059 193.967865c-.685241-3.912615-1.468375-4.988583-1.174699-8.412122 10.474409-6.94489 12.33435 11.933475 1.174699 8.412122z" fill="#000" stroke="#d33833" stroke-width="2"/><path d="m169.548377 197.097956s-3.230425-4.597321-.881025-5.966737c2.3494-1.369415 4.600909 0 5.971392-2.347569 1.370484-2.347568 0-3.716984.489458-6.455813.489459-2.738831 2.740968-3.227908 5.090367-3.716984 2.349401-.489077 8.810251-1.369415 9.691276.880338l-2.740967-8.314306-5.579824-1.858491-17.522611 10.172797-.881024 5.086399v10.172797" fill="#ef3d3a"/><path d="m120.994107 212.357153c-.587349-7.238337-1.174699-14.378858-1.762049-21.617195-.978917-10.759691 2.545183-8.901198 11.942783-8.901198 1.468375 0 8.810251 1.66286 9.29971 2.73883 2.545183 5.184214-4.209343 4.010429 2.93675 7.923045 5.971391 3.227906 16.641584-1.956308 14.194292-9.29246-1.370483-1.662862-7.0482-.489077-9.103925-1.565046-3.621992-1.858492-7.243985-3.716984-10.865976-5.575476-4.600908-2.347568-15.173209-5.868921-20.067793-2.543199-12.432242 8.412122.783134 29.54024 5.188259 38.343622" fill="#ef3d3a"/><g fill="#231f20"><path d="m133.230566 48.7120508c-12.628025-2.934461-18.893092 5.2820295-22.710868 13.7919662-3.426208-.782523-2.055725-5.4776604-1.174699-7.8252291 2.251508-6.1623679 11.355434-14.4766738 18.7952-13.3028894 3.132534.3912614 7.439768 3.3257223 5.090367 7.3361523"/><path d="m194.608646 62.9930937h.58735c2.838858 5.8689218 5.28615 12.1291051 8.908142 17.4111346-2.447292 5.6732911-18.207851 10.5640593-18.012068.5868922 3.426209-1.4672305 9.299709-.2934461 12.334351-2.2497533-1.76205-4.7929528-4.209342-8.9011981-3.817775-15.7482735"/><path d="m139.593526 63.1887244c2.740966 4.9885835 3.621991 10.1727978 7.439767 13.8897816 1.762049 1.6628612 5.090367 3.7169838 3.426208 8.4121212-.391567 1.075969-3.230425 3.521353-4.894583 4.0104299-5.971392 1.7606765-19.969902.3912614-15.271102-7.1405215 4.992476.1956307 11.64911 3.2279069 15.368993-.3912615-2.838859-4.4995067-7.929226-13.4985201-6.069283-18.7805497"/><path d="m192.357137 113.465821c-9.006034 5.771107-19.088876 12.129105-33.968411 10.661874-3.132533-2.73883-4.405125-8.901197-1.272591-12.911627 1.566267 2.73883.58735 7.825229 5.090367 8.607752 8.418683 1.46723 18.207851-5.184215 24.277135-7.433968 3.719883-6.357999-.293676-8.607752-3.719884-12.7159967-6.950309-8.3143063-16.152126-18.6827348-15.85845-31.1052859 2.838858-2.0541226 3.034641 3.1300916 3.426208 4.0104299 3.621992 8.4121212 12.725918 19.2696265 19.28466 26.5079637 1.664157 1.760676 4.307233 3.521353 4.600908 4.695137.881025 3.325723-2.251509 7.433968-1.859942 9.683721"/><path d="m73.1250795 107.401268c-2.8388584-1.66286-3.5241002-8.7055673-6.852417-8.9011976-4.796692-.293446-3.9156669 9.1946446-3.9156669 14.7701206-3.2304253-2.934462-3.8177753-12.129105-1.4683751-16.8242432-2.7409668-1.3694151-3.9156669 1.4672305-5.4819337 2.4453841 2.0557251-14.1832276 20.8509263-6.5536292 17.7183927 8.5099361"/><path d="m198.034854 119.432558c-4.209342 8.020859-10.180734 16.824243-22.515084 17.117688-.293676-2.543199-.48946-6.553629 0-8.118674 9.495492-.978155 15.368992-5.771107 22.515084-8.999014"/><path d="m138.908284 124.616772c7.831333 4.108246 22.319301 4.597322 33.087385 4.303877.58735 2.347568.58735 5.282029.58735 8.118674-13.802725.586892-30.052743-2.836645-33.674735-12.422551"/><path d="m137.439909 132.246371c5.481933 13.694151 24.179243 12.129105 39.939802 11.737844-.685242 1.760676-2.153617 3.912614-4.11145 4.597322-5.090367 2.054122-18.990984 3.619167-26.039185-.097816-4.405126-2.347569-7.341876-7.727414-9.789167-10.857506-1.076809-1.46723-6.950309-5.282029 0-5.379844"/></g><path d="m191.671896 207.662016c-6.36296 10.95532-12.530135 22.204087-20.067794 31.789993 3.132534-9.29246 4.503017-24.942918 4.992475-36.876392 6.656634-3.130092 12.334352.684707 15.075319 5.086399" fill="#81b0c4"/><path d="m226.031873 246.983792c-7.146092 1.46723-12.138568 8.412121-19.186768 7.923044 3.915667-5.379845 10.572301-7.727414 19.186768-7.923044" fill="#231f20"/><path d="m229.164406 258.134743c-5.8735.586892-12.725917 1.565045-18.599418 1.075968 2.838859-4.303875 13.606942-2.738829 18.599418-1.075968" fill="#231f20"/><path d="m231.220131 267.818463c-6.558742.097816-14.683751 0-20.948818-.489076 3.719883-4.01043 16.739477-1.467231 20.948818.489076" fill="#231f20"/><path d="m179.337545 294.228612c.978916 8.21649 4.209342 16.530796 3.817774 25.529809-3.621991 1.173785-5.677716 2.249754-10.5723 2.249754-.293675-7.629599-1.370483-19.367442-1.076809-26.703594 2.349401.195631 5.873501-1.662862 7.831335-1.075969" fill="#dcd9d8"/><path d="m168.765244 172.937561c-3.328317 2.151939-6.069284 4.792954-9.299709 7.140522-7.048201.391261-10.865976-.489077-15.956343-4.499507.097892-.293445.587351-.19563.587351-.586892 7.537658 3.325723 17.131042-1.369415 24.668701-2.054123" fill="#f0d6b7"/><path d="m129.412792 224.094996c2.055725-8.901197 10.180734-13.596335 17.522609-18.487103 7.537658 9.585906 12.138567 21.910641 17.228934 33.844116-12.040675-3.619169-24.277135-9.390276-34.751543-15.357013" fill="#81b0c4"/><path d="m171.50621 295.402396c-.293674 7.336152.685242 18.97618 1.076809 26.703594 4.894584 0 6.950309-1.075969 10.5723-2.249753.391568-8.999014-2.838858-17.313319-3.817774-25.52981-1.957834-.684708-5.481934 1.173785-7.831335 1.075969zm-75.5723706-41.473714c3.2304254 29.442425 7.8313346 54.091896 16.3479096 80.208598 18.893092 5.771107 41.60396 6.260183 58.343436 1.075969-3.034641-14.672305-1.762049-32.572516-3.5241-48.320789-1.370483-11.835659-.685241-23.671319-2.545183-35.702608-20.263577-4.20606-48.847945-.978154-68.6220626 2.73883zm73.4187546-2.543199c-.195784 12.618182.58735 25.138548 1.566267 37.75673 4.894583-.684708 8.125009-1.173785 12.628026-2.249753-1.468375-12.129105-1.272592-25.921072-4.307234-36.680762-3.426209.097816-6.46085 0-9.887059 1.173785zm24.57081-2.054123c-2.3494-.489077-4.992475 0-7.146093 0 1.076809 10.270614 3.524101 21.617195 4.405126 32.474701 3.426209.097815 5.28615-1.565046 8.125008-2.054123.195784-9.48809-.783133-22.595348-5.384041-30.420578zm37.296727 34.039747c7.243984-1.760677 11.747001-10.56406 9.691276-19.660888-1.370483-6.064553-3.719884-17.606766-6.362959-21.519381-1.859942-2.836645-7.0482-6.651444-11.257542-4.010429-6.754526 4.303876-18.599418 5.575475-23.494002 10.75969 2.447292 8.216491 3.230425 19.367441 4.209342 29.73587 8.418684.489077 18.697309-2.347568 25.74551.684708-4.894583 1.565045-11.159651 1.565045-15.368992 3.912614 3.5241 1.662861 11.551217 1.369415 16.837367.097816zm-67.153688-43.919098c-5.090367-11.933475-9.691275-24.25821-17.228934-33.844116-7.341875 4.890768-15.368992 9.585906-17.522609 18.487103 10.5723 5.966737 22.80876 11.737844 34.751543 15.357013zm12.530134-36.876392c-.489458 11.933474-1.859941 27.583932-4.992475 36.876392 7.537659-9.683721 13.704834-20.834673 20.067794-31.789993-2.740967-4.401692-8.418685-8.216491-15.075319-5.086399zm-14.194292-4.988583c-2.838858-.293447-5.28615 3.325722-9.006034 1.760676-.881025.978153-1.664158 1.956307-2.545184 2.93446 8.222901 9.977167 12.040677 24.06258 18.403635 35.702608 3.426209-11.248767 3.034642-23.475687 3.817775-35.702608-4.698799.195631-7.341875-4.401691-10.670192-4.695136zm-9.103925-12.031291c-.293676 3.423539.489458 4.499507 1.174699 8.412122 11.159651 3.521353 9.29971-15.357012-1.174699-8.412122zm-12.432243-4.108244c-4.796691-2.641015-12.040676-5.477661-18.305743-6.651445-7.733441-1.46723-6.950309 10.564059-6.656633 17.704581.293675 5.67329 3.230425 11.640028 4.503017 15.454827.587349 1.760676.783133 3.619168 2.251508 4.010429 2.643075.586893 11.453325-2.836645 13.900618-4.206061 5.28615-2.836645 9.3976-7.433967 13.900617-10.564059.097892-1.46723.097892-3.032276.195784-4.499506-2.740968-1.369415-5.775609-2.249753-9.789168-2.445384 2.643075-1.369415 6.656634-1.369415 9.103926-2.934461 0-.586892 0-1.173785.097891-1.760677-4.503016-.489077-6.167175-2.445384-9.201817-4.108244zm-46.0090861-8.314307c-4.0135585 4.108246 11.2575421 9.585906 16.0542341 9.879352 0-2.5432 1.468376-4.988584 1.1747-6.847075-5.775608-.978154-13.3132676-.293446-17.2289341-3.032277zm49.3374031 1.858492c0 .391262-.489458.293447-.58735.586892 5.188258 4.01043 9.006034 4.890768 15.956343 4.499507 3.132533-2.249753 5.971391-4.988583 9.299709-7.140522-7.635551.684708-17.228935 5.379846-24.668702 2.054123zm45.225953 13.694151c-.195784-4.499507-1.370483-13.791967-4.209342-15.454827-5.8735-3.423538-16.250017 6.94489-20.655143 8.509936.489458 1.369415 1.272592 2.445384 1.370484 4.206061 2.643074-.684708 5.775608-.195631 8.027117.880338-2.643075.293446-5.481935.293446-7.243984 1.565046-.58735 1.858492.195784 4.303876-.293675 6.847075 6.167175 1.760677 13.313267 2.641015 21.144601 2.934461 1.468375-1.956307 2.055726-5.67329 1.859942-9.48809zm-101.3178815-11.640028c-1.2725917-.880338-9.7891672-11.933474-10.9638673-11.444397-15.3689927 6.064552-29.7590686 16.530796-42.5828777 26.507962 12.2364591 26.312333 17.2289344 58.493587 18.1099594 89.501058 13.9985092 6.553629 26.33286 16.041719 45.4217362 17.019873-2.2515084-15.552643-4.2093419-29.540239-5.4819336-44.212544-4.796692-2.054123-11.6491091.097816-16.1521261-.586892 0-5.379845 6.8524172-2.347569 7.4397672-5.966737.3915666-2.738831-3.8177752-2.934461-2.4472918-7.238337 3.5241002 1.2716 5.384042 4.108245 9.1039255 5.184214 3.4262086-7.433967 0-20.639041.4894584-26.899225.0978917-1.173784.58735-6.455814 3.2304252-5.575476 2.3494001.782524-.0978916 14.183228.0978917 20.05215.1957833 5.477661-.6852418 10.661874 1.5662668 14.085413 18.4036346-2.5432 37.1009446-4.108246 57.0708446-4.695138-4.405125-1.858492-9.593383-3.619169-15.271101-6.847075-3.132532-1.760677-12.823808-5.379846-13.704834-8.314306-1.468375-4.695138 3.719884-7.140522 4.600909-11.150952-9.299709 5.086399-11.061759-4.890768-13.313267-11.835658-1.957833-6.358-3.132534-11.150952-3.621992-14.77012-8.125009-4.108246-16.7394764-7.923044-23.5918935-12.813813zm93.1928725-10.172798c12.823809-6.162367 15.173209 23.182241 10.082842 32.670332.783134 2.836645 3.426209 3.912614 4.503017 6.455813-7.146092 12.813812-15.075317 24.747287-22.417192 37.365469 5.384041-3.423537 13.215375-.586892 19.578334-3.130092 2.3494-.880338 4.013558-6.260183 5.775608-10.564059 4.894584-11.737844 9.984951-26.605778 12.236459-37.75673.489459-2.543199 1.957834-8.118675 1.566267-10.368429-.58735-4.108245-6.069283-7.140521-8.908142-9.585905-5.188259-4.695137-8.418684-8.705567-13.900618-13.107259-2.055725 3.227907-6.754524 5.379846-8.516575 8.02086zm-122.4624827-113.5636362c-6.0692837 6.74926-4.7966919 19.2696265-4.1114502 28.2686399 11.061759-6.9448908 25.6476183.5868922 25.5497266 12.3247358 5.2861503-.0978155 1.9578334-6.5536294.9789167-10.75969-3.1325336-13.5963355 5.2861504-28.2686399.3915667-40.691191-9.4954922.7825229-17.2289344 4.5973221-22.8087598 10.8575053zm43.6596857-39.0283298c-13.8027255 3.9126146-31.5211182 13.9875969-37.1988353 26.410148 4.4051253-.6847076 7.4397672-2.8366455 11.7470008-3.1300916 1.6641584-.0978154 3.8177752.6847075 5.677717.1956307 3.7198836-.9781537 6.9503088-9.3902748 9.7891673-12.5203665 2.7409668-3.0322762 6.0692837-4.4016913 8.3207922-7.1405215 1.468375-.6847075 3.621992-.6847075 3.719884-2.8366455-.587351-.6847075-1.272592-1.1737843-2.055726-.9781536zm71.95038 3.7169837c-14.390076-8.11867507-38.667211-14.18322755-53.938312-6.5536293-12.33435 6.1623679-28.9759349 16.3351657-34.653652 29.1489782 5.2861504 12.4225511-1.5662668 23.7691332-2.0557251 36.387315-.1957833 6.7492601 3.1325335 12.5203665 3.4262085 19.8565187-1.8599417 3.0322761-7.3418754 3.3257227-11.1596507 3.1300917-1.2725917-6.4558141-3.5241002-13.6941509-10.1807339-14.4766738-9.3976006-1.0759689-16.3479094 6.74926-16.7394761 14.8679348-.4894583 9.585906 7.3418755 25.431995 18.5015262 24.356026 4.3072336-.391261 5.384042-4.695138 10.0828423-4.695138 2.5451835 5.086399-3.9156669 6.651445-4.6009087 10.270614-.1957833.978153.4894585 4.597322.9789168 6.357998 2.0557251 8.314306 6.5587421 19.171811 10.9638674 25.52981 5.6777169 8.118675 16.7394753 9.292459 28.6822603 10.074982 2.153617-4.597322 9.98495-4.206061 15.075317-3.032276-6.167175-2.445384-11.844892-8.314306-16.543692-13.498521-5.384043-5.966737-10.865976-12.324735-11.159651-20.149964 10.278625 14.183227 18.69731 26.605779 37.296727 32.865962 14.096401 4.695137 30.542203-2.151938 41.408178-9.781536 4.503017-3.130092 7.146092-8.216491 10.376517-12.715997 11.942785-17.215504 17.52261-41.669346 16.34791-65.4384783-.489459-9.7815363-.489459-19.5630726-3.817775-26.116702-3.42621-6.8470753-15.075319-13.1072586-21.927735-6.8470753-1.272592-6.74926 5.677717-10.8575053 13.802726-8.4121212-5.775609-7.531783-11.844893-16.432981-20.165685-21.1281185zm26.822319 221.1605353c11.257541-5.575476 32.20636-14.96575 39.156668 0 2.643076 5.575476 5.677718 14.867936 6.950309 20.639042 1.859942 8.020859-2.055725 25.040733-10.376517 27.681747-7.341876 2.34757-15.858451 2.249754-24.668701.489077-1.076809-.880338-2.153617-2.347568-3.034642-3.912614-6.265068-.19563-12.23646.293446-17.131043 2.93446.489458 4.695138-2.643075 5.379846-5.677717 6.358-2.153617 8.705567 4.405125 20.052149 2.838858 27.877378-1.076809 5.673291-8.027117 6.55363-13.117484 7.531783-.195783 3.130091.195784 5.771106.58735 8.412121-1.1747 4.303876-6.362958 6.74926-11.355434 7.336152-16.347909 1.956308-41.114502 2.836646-56.77717-2.836645-4.405125-10.759691-7.831334-23.769134-11.4533259-35.996054-15.271101 1.662861-27.7033434-6.55363-39.3524524-12.03129-4.0135587-1.858491-9.593384-2.93446-11.1596507-6.162368-1.4683751-3.130091-.8810251-9.096829-1.2725918-14.672304-.8810251-14.378858-1.7620501-28.268639-5.4819337-42.940944-1.6641585-6.651445-4.6988003-12.422551-6.7545254-18.78055-1.9578335-5.868922-5.2861503-13.205074-6.1671754-19.073995-1.2725918-8.705568 6.9503088-9.194644 12.1385674-13.009444 8.1250089-5.868922 14.4879676-9.096829 23.2982182-14.378858 2.6430751-1.565046 10.4744089-5.47766 11.355434-7.336153 1.7620501-3.619167-3.0346419-8.705566-4.3072336-11.542212-2.0557251-4.499507-3.1325336-8.314306-3.4262086-12.715998-7.3418754-1.173784-13.0195924-5.575476-16.3479093-10.466243-5.5798254-8.216491-9.4954923-23.3778725-4.6009086-34.8222694.3915667-.8803383 2.2515084-2.7388302 2.5451834-4.1082453.5873501-2.7388302-1.0768083-6.3579986-1.1747001-9.2924595-.4894583-14.9657505 2.5451836-27.8773785 12.6280258-32.3768851 4.1114503-16.3351656 18.7952012-21.7150106 32.5979271-29.8336857 5.1882586-3.03227624 10.8659756-4.98858351 16.7394756-7.14052149 21.04671-7.72741367 53.448853-6.26018323 70.971463 6.94489079 7.439767 5.5754757 19.28466 17.4111346 23.494001 26.0188865 11.257543 22.5953488 10.376518 60.4498943 2.545184 88.0338262-1.076809 3.716984-2.545184 9.096829-4.6988 13.596335-1.468376 3.130092-6.069283 9.29246-5.579825 12.031291.587349 2.836645 10.572301 10.368428 12.725917 12.422551 3.817775 3.716984 11.15965 8.607752 11.747001 13.302889.685242 4.988584-2.153617 11.835659-3.621992 16.628612-4.6988 16.041719-9.397601 30.811839-14.781642 45.190697z" fill="#231f20"/><path d="m126.37815 128.04031c.58735-.782523 3.915666-2.054123 8.614467.195631 0 0-5.579825.880338-5.090367 10.172798l-2.349401-.489077c.097892.097816-2.3494-8.314306-1.174699-9.879352" fill="#f7e4cd"/><path d="m166.905303 207.466385c0 1.369415-1.174701 2.543199-2.545184 2.543199-1.370484 0-2.545184-1.173784-2.545184-2.543199s1.1747-2.5432 2.545184-2.5432c1.468375 0 2.545184 1.173785 2.545184 2.5432" fill="#1d1919"/><path d="m169.450486 219.302044c0 1.369415-1.1747 2.543199-2.545183 2.543199-1.370485 0-2.545184-1.173784-2.545184-2.543199 0-1.369416 1.174699-2.543199 2.545184-2.543199 1.468375 0 2.545183 1.075968 2.545183 2.543199" fill="#1d1919"/></g><path d="m387.962 181h-6.345v-38.88h6.345zm13.581-23.895c.594003-.612003 1.210497-1.165498 1.8495-1.6605s1.318496-.922498 2.0385-1.2825 1.484996-.638999 2.295-.837 1.691995-.297 2.646-.297c1.512008 0 2.839494.251997 3.9825.756s2.105996 1.214995 2.889 2.133 1.372498 2.020494 1.7685 3.3075.594 2.704492.594 4.2525v17.523h-5.778v-17.523c0-1.854009-.427496-3.293995-1.2825-4.32s-2.155491-1.539-3.9015-1.539c-1.296006 0-2.497494.296997-3.6045.891s-2.146495 1.403995-3.1185 2.43v20.061h-5.805v-27.54h3.51c.792004 0 1.295999.368996 1.512 1.107zm33.696 24.327c-2.286011 0-4.045494-.643494-5.2785-1.9305s-1.8495-3.100488-1.8495-5.4405v-16.038h-3.024c-.324002 0-.602999-.103499-.837-.3105s-.351-.517498-.351-.9315v-2.349l4.455-.648 1.269-7.965c.09-.306002.242999-.553499.459-.7425s.503998-.2835.864-.2835h2.97v9.045h7.641v4.185h-7.641v15.633c0 .990005.242998 1.745997.729 2.268s1.133996.783 1.944.783c.450002 0 .836998-.058499 1.161-.1755s.602999-.242999.837-.378.436499-.260999.6075-.378.337499-.1755.4995-.1755c.324002 0 .584999.179998.783.54l1.728 2.835c-.900004.792004-1.961994 1.399498-3.186 1.8225s-2.483994.6345-3.78.6345zm16.389-22.869c.864004-1.746009 1.907994-3.118495 3.132-4.1175s2.690991-1.4985 4.401-1.4985c.594003 0 1.151997.067499 1.674.2025s.989998.337499 1.404.6075l-.405 4.374c-.072.306002-.184499.517499-.3375.6345s-.355499.1755-.6075.1755c-.270001 0-.656997-.0495-1.161-.1485s-1.034997-.1485-1.593-.1485c-.810004 0-1.525497.116999-2.1465.351s-1.178998.575998-1.674 1.026-.931498.998997-1.3095 1.647-.728998 1.385996-1.053 2.214v17.118h-5.805v-27.54h3.375c.612003 0 1.034999.112499 1.269.3375s.396.616497.486 1.1745zm26.352-5.535c2.03401 0 3.874492.332997 5.5215.999s3.050994 1.610994 4.212 2.835 2.056497 2.708991 2.6865 4.455.945 3.707989.945 5.886-.314997 4.139991-.945 5.886-1.525494 3.235494-2.6865 4.4685-2.564992 2.182497-4.212 2.8485-3.48749.999-5.5215.999c-2.05201 0-3.901492-.332997-5.5485-.999s-3.055494-1.615494-4.2255-2.8485-2.069997-2.722491-2.7-4.4685-.945-3.707989-.945-5.886.314997-4.139991.945-5.886 1.529994-3.230994 2.7-4.455 2.578492-2.168997 4.2255-2.835 3.49649-.999 5.5485-.999zm0 23.841c2.484012 0 4.333494-.832492 5.5485-2.4975s1.8225-4.045485 1.8225-7.1415-.607494-5.485492-1.8225-7.1685-3.064488-2.5245-5.5485-2.5245c-2.520013 0-4.391994.841492-5.616 2.5245s-1.836 4.072485-1.836 7.1685.611994 5.476492 1.836 7.1415 3.095987 2.4975 5.616 2.4975zm36.504-16.632c-.810004-1.044005-1.700995-1.772998-2.673-2.187s-2.024994-.621-3.159-.621c-2.268011 0-4.040994.832492-5.319 2.4975s-1.917 4.126484-1.917 7.3845c0 1.692008.143999 3.136494.432 4.3335s.701997 2.173496 1.242 2.9295 1.196996 1.304998 1.971 1.647 1.646995.513 2.619.513c1.476007 0 2.749495-.319497 3.8205-.9585s2.065495-1.543494 2.9835-2.7135zm5.805-19.197v39.96h-3.51c-.774004 0-1.268999-.368996-1.485-1.107l-.513-2.997c-1.152006 1.350007-2.461493 2.438996-3.9285 3.267s-3.17249 1.242-5.1165 1.242c-1.548008 0-2.951994-.310497-4.212-.9315s-2.339995-1.525494-3.24-2.7135-1.597498-2.659491-2.0925-4.4145-.7425-3.766489-.7425-6.0345c0-2.05201.274497-3.950991.8235-5.697s1.336495-3.262494 2.3625-4.5495 2.272493-2.294996 3.7395-3.024 3.109491-1.0935 4.9275-1.0935c1.620008 0 2.996994.256497 4.131.7695s2.150996 1.228495 3.051 2.1465v-14.823zm30.294 12.42v27.54h-3.51c-.774004 0-1.268999-.368996-1.485-1.107l-.432-2.565c-.576003.612003-1.183497 1.169997-1.8225 1.674s-1.318496.935998-2.0385 1.296-1.489496.638999-2.3085.837-1.696495.297-2.6325.297c-1.512008 0-2.843994-.251997-3.996-.756s-2.119496-1.214995-2.9025-2.133-1.372498-2.020494-1.7685-3.3075-.594-2.704492-.594-4.2525v-17.523h5.805v17.523c0 1.854009.427496 3.293995 1.2825 4.32s2.155491 1.539 3.9015 1.539c1.278006 0 2.470494-.292497 3.5775-.8775s2.146495-1.390495 3.1185-2.4165v-20.088zm26.541 5.4c-.180001.234001-.350999.413999-.513.54s-.395998.189-.702.189-.625498-.107999-.9585-.324-.728998-.454499-1.188-.7155-1.012497-.499499-1.6605-.7155-1.457995-.324-2.43-.324c-1.260006 0-2.362495.224998-3.3075.675s-1.736997 1.093496-2.376 1.9305-1.115998 1.853994-1.431 3.051-.4725 2.542493-.4725 4.0365c0 1.548008.170998 2.924994.513 4.131s.832497 2.222996 1.4715 3.051 1.412995 1.457998 2.322 1.89 1.930494.648 3.0645.648c1.116006 0 2.024996-.134999 2.727-.405s1.286998-.566998 1.755-.891.868498-.620999 1.2015-.891.688498-.405 1.0665-.405c.468002 0 .827999.179998 1.08.54l1.647 2.133c-.666003.810004-1.403996 1.493997-2.214 2.052s-1.664995 1.012498-2.565 1.3635-1.835995.602999-2.808.756-1.952995.2295-2.943.2295c-1.710009 0-3.307493-.319497-4.7925-.9585s-2.780994-1.565994-3.888-2.781-1.979997-2.699991-2.619-4.455-.9585-3.757489-.9585-6.0075c0-2.03401.287997-3.919491.864-5.6565s1.417494-3.235494 2.5245-4.4955 2.479492-2.245496 4.1175-2.9565 3.527989-1.0665 5.67-1.0665c1.99801 0 3.757492.323997 5.2785.972s2.875494 1.565994 4.0635 2.754zm12.501-5.4v27.54h-5.805v-27.54zm.972-8.316c0 .522003-.103499 1.016998-.3105 1.485s-.490498.877498-.8505 1.2285-.778498.629999-1.2555.837-.985497.3105-1.5255.3105c-.522003 0-1.012498-.103499-1.4715-.3105s-.859498-.485998-1.2015-.837-.616499-.760498-.8235-1.2285-.3105-.962997-.3105-1.485c0-.540003.103499-1.043998.3105-1.512s.481498-.877498.8235-1.2285.742498-.629999 1.2015-.837.949497-.3105 1.4715-.3105c.540003 0 1.048498.103499 1.5255.3105s.895498.485998 1.2555.837.643499.760498.8505 1.2285.3105.971997.3105 1.512zm11.772 11.961c.594003-.612003 1.210497-1.165498 1.8495-1.6605s1.318496-.922498 2.0385-1.2825 1.484996-.638999 2.295-.837 1.691995-.297 2.646-.297c1.512008 0 2.839494.251997 3.9825.756s2.105996 1.214995 2.889 2.133 1.372498 2.020494 1.7685 3.3075.594 2.704492.594 4.2525v17.523h-5.778v-17.523c0-1.854009-.427496-3.293995-1.2825-4.32s-2.155491-1.539-3.9015-1.539c-1.296006 0-2.497494.296997-3.6045.891s-2.146495 1.403995-3.1185 2.43v20.061h-5.805v-27.54h3.51c.792004 0 1.295999.368996 1.512 1.107zm34.695 9.882c1.800009 0 3.149996-.458995 4.05-1.377.900005-.918005 1.35-2.114993 1.35-3.591 0-1.512008-.449995-2.708996-1.35-3.591-.900004-.882004-2.249991-1.323-4.05-1.323-1.782009 0-3.127495.440996-4.0365 1.323s-1.3635 2.078992-1.3635 3.591c0 .720004.116999 1.385997.351 1.998s.575998 1.138498 1.026 1.5795 1.012497.782999 1.6875 1.026 1.453496.3645 2.3355.3645zm8.073 15.363c0-.612003-.175498-1.102498-.5265-1.4715s-.823497-.656999-1.4175-.864-1.286996-.36-2.079-.459-1.633496-.171-2.5245-.216-1.799995-.09-2.727-.135-1.822496-.130499-2.6865-.2565c-.864004.450002-1.570497.989997-2.1195 1.62s-.8235 1.358996-.8235 2.187c0 .540003.139499 1.043998.4185 1.512s.710997.872998 1.296 1.215 1.331995.611999 2.241.81 2.002494.297 3.2805.297c2.556013 0 4.472994-.395996 5.751-1.188s1.917-1.808994 1.917-3.051zm5.832-27.891v2.16c0 .720004-.431996 1.160999-1.296 1.323l-2.754.459c.468002 1.044005.702 2.204994.702 3.483 0 1.350007-.265497 2.573995-.7965 3.672s-1.264495 2.033996-2.2005 2.808-2.051994 1.367998-3.348 1.782-2.699992.621-4.212.621c-.576003 0-1.138497-.0315-1.6875-.0945s-1.084497-.148499-1.6065-.2565c-.522003.306002-.908999.629998-1.161.972s-.378.692998-.378 1.053c0 .594003.260997 1.034999.783 1.323s1.210496.494999 2.0655.621 1.831495.207 2.9295.243 2.213994.099 3.348.189 2.249995.238499 3.348.4455 2.074496.548998 2.9295 1.026 1.543497 1.120496 2.0655 1.9305.783 1.862994.783 3.159c0 1.188006-.296997 2.348994-.891 3.483s-1.453494 2.141996-2.5785 3.024-2.497492 1.588497-4.1175 2.1195-3.46499.7965-5.535.7965c-2.05201 0-3.838492-.197998-5.3595-.594s-2.789995-.931497-3.807-1.6065-1.772998-1.453496-2.268-2.3355-.7425-1.799995-.7425-2.754c0-1.296006.409496-2.402995 1.2285-3.321s1.930493-1.637997 3.3345-2.16c-.756004-.360002-1.363498-.854997-1.8225-1.485s-.6885-1.457995-.6885-2.484c0-.810004.296997-1.655996.891-2.538s1.484994-1.628997 2.673-2.241c-1.368007-.756004-2.447996-1.759494-3.24-3.0105s-1.188-2.713492-1.188-4.3875c0-1.368007.265497-2.600995.7965-3.699s1.273495-2.033996 2.2275-2.808 2.083493-1.367998 3.3885-1.782 2.731492-.621 4.2795-.621c2.376012 0 4.445991.494995 6.21 1.485zm33.264 12.879c0 2.178011-.265497 4.135491-.7965 5.8725s-1.322995 3.212994-2.376 4.428-2.357992 2.150997-3.915 2.808-3.36149.9855-5.4135.9855c-.936005 0-1.862995-.058499-2.781-.1755s-1.871995-.301499-2.862-.5535l.324-3.78c.054-.360002.193499-.647999.4185-.864s.553498-.324.9855-.324c.324002 0 .742497.067499 1.2555.2025s1.183496.2025 2.0115.2025c1.098005 0 2.074496-.161998 2.9295-.486s1.574997-.832497 2.16-1.5255 1.025999-1.583995 1.323-2.673.4455-2.407492.4455-3.9555v-25.38h6.291zm25.839-3.213c0-.972005-.139499-1.876496-.4185-2.7135s-.688497-1.565997-1.2285-2.187-1.210496-1.106998-2.0115-1.458-1.723495-.5265-2.7675-.5265c-2.106011 0-3.761994.602994-4.968 1.809s-1.970998 2.897989-2.295 5.076zm-13.851 3.564c.072 1.566008.314998 2.920494.729 4.0635s.967497 2.092496 1.6605 2.8485 1.520995 1.318498 2.484 1.6875 2.038494.5535 3.2265.5535c1.134006 0 2.114996-.130499 2.943-.3915s1.547997-.548998 2.16-.864 1.133998-.602999 1.566-.864.827998-.3915 1.188-.3915c.468002 0 .827999.179998 1.08.54l1.647 2.133c-.684003.810004-1.457996 1.493997-2.322 2.052s-1.781995 1.012498-2.754 1.3635-1.970995.602999-2.997.756-2.024995.2295-2.997.2295c-1.90801 0-3.676492-.319497-5.3055-.9585s-3.041994-1.579494-4.239-2.8215-2.132997-2.780991-2.808-4.617-1.0125-3.950988-1.0125-6.345c0-1.90801.301497-3.689992.9045-5.346s1.466994-3.095994 2.592-4.32 2.492992-2.191496 4.104-2.9025 3.43349-1.0665 5.4675-1.0665c1.692008 0 3.257993.274497 4.698.8235s2.681995 1.354495 3.726 2.4165 1.858497 2.362492 2.4435 3.9015.8775 3.28949.8775 5.2515c0 .900005-.098999 1.502998-.297 1.809s-.557997.459-1.08.459zm29.889-10.584c.594003-.612003 1.210497-1.165498 1.8495-1.6605s1.318496-.922498 2.0385-1.2825 1.484996-.638999 2.295-.837 1.691995-.297 2.646-.297c1.512008 0 2.839494.251997 3.9825.756s2.105996 1.214995 2.889 2.133 1.372498 2.020494 1.7685 3.3075.594 2.704492.594 4.2525v17.523h-5.778v-17.523c0-1.854009-.427496-3.293995-1.2825-4.32s-2.155491-1.539-3.9015-1.539c-1.296006 0-2.497494.296997-3.6045.891s-2.146495 1.403995-3.1185 2.43v20.061h-5.805v-27.54h3.51c.792004 0 1.295999.368996 1.512 1.107zm30.672-16.065v23.166h1.242c.396002 0 .719999-.053999.972-.162s.512999-.332998.783-.675l7.722-8.829c.270001-.360002.566998-.629999.891-.81s.737997-.27 1.242-.27h5.265l-9.288 10.476c-.540003.702004-1.133997 1.259998-1.782 1.674.360002.252001.674999.535498.945.8505s.530999.670498.783 1.0665l9.909 13.473h-5.184c-.468002 0-.868498-.076499-1.2015-.2295s-.625499-.436498-.8775-.8505l-7.965-10.8c-.270001-.414002-.539999-.679499-.81-.7965s-.674997-.1755-1.215-.1755h-1.431v12.852h-5.805v-39.96zm28.431 12.42v27.54h-5.805v-27.54zm.972-8.316c0 .522003-.103499 1.016998-.3105 1.485s-.490498.877498-.8505 1.2285-.778498.629999-1.2555.837-.985497.3105-1.5255.3105c-.522003 0-1.012498-.103499-1.4715-.3105s-.859498-.485998-1.2015-.837-.616499-.760498-.8235-1.2285-.3105-.962997-.3105-1.485c0-.540003.103499-1.043998.3105-1.512s.481498-.877498.8235-1.2285.742498-.629999 1.2015-.837.949497-.3105 1.4715-.3105c.540003 0 1.048498.103499 1.5255.3105s.895498.485998 1.2555.837.643499.760498.8505 1.2285.3105.971997.3105 1.512zm11.772 11.961c.594003-.612003 1.210497-1.165498 1.8495-1.6605s1.318496-.922498 2.0385-1.2825 1.484996-.638999 2.295-.837 1.691995-.297 2.646-.297c1.512008 0 2.839494.251997 3.9825.756s2.105996 1.214995 2.889 2.133 1.372498 2.020494 1.7685 3.3075.594 2.704492.594 4.2525v17.523h-5.778v-17.523c0-1.854009-.427496-3.293995-1.2825-4.32s-2.155491-1.539-3.9015-1.539c-1.296006 0-2.497494.296997-3.6045.891s-2.146495 1.403995-3.1185 2.43v20.061h-5.805v-27.54h3.51c.792004 0 1.295999.368996 1.512 1.107zm41.31 1.35c-.144001.252001-.305999.431999-.486.54s-.404999.162-.675.162c-.306002 0-.638998-.094499-.999-.2835s-.782998-.400499-1.269-.6345-1.057497-.445499-1.7145-.6345-1.426496-.2835-2.3085-.2835c-.720004 0-1.372497.085499-1.9575.2565s-1.079998.413998-1.485.729-.715499.683998-.9315 1.107-.324.877498-.324 1.3635c0 .648003.197998 1.187998.594 1.62s.917997.805498 1.566 1.1205 1.385996.598499 2.214.8505 1.673996.521999 2.538.81 1.709996.620998 2.538.999 1.565997.841497 2.214 1.3905 1.169998 1.214996 1.566 1.998.594 1.732494.594 2.8485c0 1.296006-.233998 2.492995-.702 3.591s-1.151996 2.051996-2.052 2.862c-.900005.810004-2.020493 1.439998-3.3615 1.89s-2.875491.675-4.6035.675c-.954005 0-1.876496-.085499-2.7675-.2565s-1.736996-.404999-2.538-.702-1.547997-.652498-2.241-1.0665-1.309497-.863998-1.8495-1.35l1.35-2.214c.162001-.270001.364499-.481499.6075-.6345s.544498-.2295.9045-.2295c.378002 0 .751498.121499 1.1205.3645s.800998.508499 1.296.7965 1.093496.553499 1.7955.7965 1.574995.3645 2.619.3645c.864004 0 1.610997-.103499 2.241-.3105s1.151998-.490498 1.566-.8505.719999-.769498.918-1.2285.297-.949497.297-1.4715c0-.702004-.197998-1.277998-.594-1.728s-.922497-.836998-1.5795-1.161-1.403996-.611999-2.241-.864-1.687496-.521999-2.5515-.81-1.714496-.620998-2.5515-.999-1.583997-.859497-2.241-1.4445-1.183498-1.295996-1.5795-2.133-.594-1.858494-.594-3.0645c0-1.098005.220498-2.141995.6615-3.132s1.088996-1.862996 1.944-2.619 1.907994-1.354498 3.159-1.7955 2.695492-.6615 4.3335-.6615c1.854009 0 3.536992.296997 5.049.891s2.780995 1.403995 3.807 2.43z" fill="#fff"/><path d="m406.994 267.13c2.350012 0 4.323992-.281997 5.922-.846s2.874829-1.315995 3.8305-2.256 1.644998-2.03666 2.068-3.29.6345-2.584993.6345-3.995c0-1.472674-.234998-2.796494-.705-3.9715s-1.206328-2.177663-2.209-3.008-2.295159-1.464831-3.8775-1.9035-3.485822-.658-5.7105-.658h-12.737v19.928zm-12.784-48.316v19.646h10.058c4.324022 0 7.590489-.783326 9.7995-2.35 2.209011-1.566675 3.3135-4.05765 3.3135-7.473 0-3.540684-1.002657-6.062992-3.008-7.567s-5.138645-2.256-9.4-2.256zm10.763-9.776c4.449356 0 8.256318.422996 11.421 1.269s5.75749 2.052326 7.7785 3.619c2.02101 1.566675 3.501495 3.462322 4.4415 5.687s1.41 4.731319 1.41 7.52c0 1.598008-.234998 3.125493-.705 4.5825s-1.198495 2.819994-2.1855 4.089-2.240326 2.420495-3.76 3.4545-3.329156 1.91133-5.4285 2.632c9.33738 2.099344 14.006 7.14396 14.006 15.134 0 2.882681-.548328 5.545988-1.645 7.99s-2.694656 4.551158-4.794 6.3215-4.684318 3.156828-7.755 4.1595-6.57998 1.504-10.528 1.504h-25.662v-67.962zm48.41-1.88v69.842h-11.609v-69.842zm53.157 21.62v48.222h-7.097c-1.535341 0-2.506665-.704993-2.914-2.115l-.799-3.854c-1.97401 2.005343-4.151655 3.626827-6.533 4.8645s-5.185651 1.8565-8.413 1.8565c-2.632013 0-4.95849-.446496-6.9795-1.3395s-3.720826-2.154159-5.0995-3.7835-2.420496-3.564155-3.1255-5.8045-1.0575-4.70782-1.0575-7.4025v-30.644h11.609v30.644c0 2.945348.681493 5.224825 2.0445 6.8385s3.407486 2.4205 6.1335 2.4205c2.005343 0 3.885325-.446496 5.64-1.3395s3.415326-2.122825 4.982-3.6895v-34.874zm42.535 18.565c0-1.504008-.211498-2.921827-.6345-4.2535s-1.057496-2.498828-1.9035-3.5015-1.91916-1.79383-3.2195-2.3735-2.812158-.8695-4.5355-.8695c-3.352683 0-5.99249.955657-7.9195 2.867s-3.156831 4.621649-3.6895 8.131zm-22.137 7.003c.188001 2.475346.626663 4.613824 1.316 6.4155s1.597994 3.289994 2.726 4.465 2.467492 2.05233 4.0185 2.632 3.266491.8695 5.1465.8695 3.501493-.219331 4.8645-.658 2.553662-.924331 3.572-1.457 1.911329-1.018331 2.679-1.457 1.51183-.658 2.2325-.658c.971338 0 1.691998.36033 2.162 1.081l3.337 4.23c-1.284673 1.504008-2.725992 2.765162-4.324 3.7835s-3.266491 1.832997-5.0055 2.444-3.509324 1.041832-5.311 1.2925-3.548492.376-5.2405.376c-3.352683 0-6.470319-.556161-9.353-1.6685s-5.389323-2.757322-7.52-4.935-3.806994-4.872317-5.029-8.084-1.833-6.932479-1.833-11.1625c0-3.290016.532661-6.384152 1.598-9.2825s2.592823-5.420656 4.5825-7.567 4.417986-3.84616 7.285-5.0995 6.102149-1.88 9.7055-1.88c3.039349 0 5.843654.485662 8.413 1.457s4.778324 2.389157 6.627 4.2535 3.297828 4.151653 4.3475 6.862 1.5745 5.804483 1.5745 9.2825c0 1.754675-.187998 2.937497-.564 3.5485s-1.096661.9165-2.162.9165zm130.754-11.327c0 4.982025-.822492 9.595812-2.4675 13.8415s-3.971485 7.919484-6.9795 11.0215-6.626979 5.522491-10.857 7.2615-8.929974 2.6085-14.1 2.6085c-5.138692 0-9.822979-.869491-14.053-2.6085s-7.856818-4.159484-10.8805-7.2615-5.365825-6.775812-7.0265-11.0215-2.491-8.859475-2.491-13.8415.830325-9.595812 2.491-13.8415 4.002818-7.919484 7.0265-11.0215 6.650479-5.522491 10.8805-7.2615 8.914308-2.6085 14.053-2.6085c3.446684 0 6.689651.399496 9.729 1.1985s5.827987 1.926993 8.366 3.384 4.81749 3.227323 6.8385 5.311 3.736493 4.410154 5.1465 6.9795 2.483163 5.357985 3.2195 8.366 1.1045 6.17265 1.1045 9.494zm-12.925 0c0-3.728685-.501328-7.073485-1.504-10.0345s-2.428324-5.47549-4.277-7.5435-4.09682-3.650328-6.7445-4.747-5.63215-1.645-8.9535-1.645-6.30582.548328-8.9535 1.645-4.903657 2.67899-6.768 4.747-3.297828 4.582485-4.3005 7.5435-1.504 6.305815-1.504 10.0345.501328 7.073485 1.504 10.0345 2.436157 5.467656 4.3005 7.52 4.12032 3.626828 6.768 4.7235 5.63215 1.645 8.9535 1.645 6.30582-.548328 8.9535-1.645 4.895824-2.671156 6.7445-4.7235 3.274328-4.558985 4.277-7.52 1.504-6.305815 1.504-10.0345zm56.776-4.042c-.344668.438669-.681498.783332-1.0105 1.034s-.80683.376-1.4335.376c-.595336 0-1.174997-.180165-1.739-.5405s-1.237663-.767664-2.021-1.222-1.715495-.861665-2.7965-1.222-2.420492-.5405-4.0185-.5405c-2.036677 0-3.822659.368163-5.358 1.1045s-2.812162 1.793826-3.8305 3.1725-1.778164 3.047157-2.2795 5.0055-.752 4.175154-.752 6.6505c0 2.569346.274164 4.856657.8225 6.862s1.339495 3.689493 2.3735 5.0525 2.287326 2.396996 3.76 3.102 3.133324 1.0575 4.982 1.0575 3.344828-.227164 4.4885-.6815 2.107163-.955664 2.8905-1.504 1.46483-1.049664 2.0445-1.504 1.22983-.6815 1.9505-.6815c.940005 0 1.644998.36033 2.115 1.081l3.337 4.23c-1.284673 1.504008-2.678992 2.765162-4.183 3.7835s-3.062825 1.832997-4.6765 2.444-3.274325 1.041832-4.982 1.2925-3.407492.376-5.0995.376c-2.976682 0-5.780987-.556161-8.413-1.6685s-4.93499-2.733823-6.909-4.8645-3.532828-4.739151-4.6765-7.8255-1.7155-6.60348-1.7155-10.5515c0-3.540684.509162-6.822818 1.5275-9.8465s2.51449-5.639989 4.4885-7.849 4.417985-3.94016 7.332-5.1935 6.266648-1.88 10.058-1.88c3.603351 0 6.760153.579661 9.4705 1.739s5.146489 2.819989 7.3085 4.982zm41.83 8.366c0-1.504008-.211498-2.921827-.6345-4.2535s-1.057496-2.498828-1.9035-3.5015-1.91916-1.79383-3.2195-2.3735-2.812158-.8695-4.5355-.8695c-3.352683 0-5.99249.955657-7.9195 2.867s-3.156831 4.621649-3.6895 8.131zm-22.137 7.003c.188001 2.475346.626663 4.613824 1.316 6.4155s1.597994 3.289994 2.726 4.465 2.467492 2.05233 4.0185 2.632 3.266491.8695 5.1465.8695 3.501493-.219331 4.8645-.658 2.553662-.924331 3.572-1.457 1.911329-1.018331 2.679-1.457 1.51183-.658 2.2325-.658c.971338 0 1.691998.36033 2.162 1.081l3.337 4.23c-1.284673 1.504008-2.725992 2.765162-4.324 3.7835s-3.266491 1.832997-5.0055 2.444-3.509324 1.041832-5.311 1.2925-3.548492.376-5.2405.376c-3.352683 0-6.470319-.556161-9.353-1.6685s-5.389323-2.757322-7.52-4.935-3.806994-4.872317-5.029-8.084-1.833-6.932479-1.833-11.1625c0-3.290016.532661-6.384152 1.598-9.2825s2.592823-5.420656 4.5825-7.567 4.417986-3.84616 7.285-5.0995 6.102149-1.88 9.7055-1.88c3.039349 0 5.843654.485662 8.413 1.457s4.778324 2.389157 6.627 4.2535 3.297828 4.151653 4.3475 6.862 1.5745 5.804483 1.5745 9.2825c0 1.754675-.187998 2.937497-.564 3.5485s-1.096661.9165-2.162.9165zm66.74 2.068c-3.352683.156667-6.172655.446498-8.46.8695s-4.120326.963497-5.499 1.6215-2.365664 1.425662-2.961 2.303-.893 1.832995-.893 2.867c0 2.036677.603161 3.493662 1.8095 4.371s2.780824 1.316 4.7235 1.316c2.381345 0 4.441491-.430829 6.1805-1.2925s3.438825-2.169825 5.0995-3.9245zm-26.602-20.915c5.546028-5.076025 12.219961-7.614 20.022-7.614 2.820014 0 5.342322.462162 7.567 1.3865s4.104659 2.208992 5.64 3.854 2.702496 3.611155 3.5015 5.8985 1.1985 4.793986 1.1985 7.52v30.456h-5.264c-1.096672 0-1.942664-.164498-2.538-.4935s-1.065332-.994828-1.41-1.9975l-1.034-3.478c-1.222006 1.096672-2.412661 2.060163-3.572 2.8905s-2.36566 1.527497-3.619 2.0915-2.592826.994832-4.0185 1.2925-3.000158.4465-4.7235.4465c-2.036677 0-3.916658-.274164-5.64-.8225s-3.21166-1.370828-4.465-2.4675-2.224663-2.459659-2.914-4.089-1.034-3.524989-1.034-5.687c0-1.222006.203665-2.436161.611-3.6425s1.073162-2.357828 1.9975-3.4545 2.122826-2.130662 3.5955-3.102 3.282156-1.81733 5.4285-2.538 4.645152-1.308164 7.4965-1.7625 6.109982-.7285 9.776-.8225v-2.82c0-3.227349-.689326-5.616492-2.068-7.1675s-3.36832-2.3265-5.969-2.3265c-1.880009 0-3.438827.219331-4.6765.658s-2.326495.932164-3.2665 1.4805-1.793829 1.041831-2.5615 1.4805-1.621495.658-2.5615.658c-.814671 0-1.503997-.211498-2.068-.6345s-1.018332-.916497-1.363-1.4805zm59.69-.799c.971338-.971338 1.997495-1.872163 3.0785-2.7025s2.224661-1.53533 3.431-2.115 2.498826-1.033998 3.8775-1.363 2.882659-.4935 4.512-.4935c2.632013 0 4.966323.446496 7.003 1.3395s3.736493 2.146325 5.0995 3.76 2.396996 3.540655 3.102 5.781 1.0575 4.70782 1.0575 7.4025v30.691h-11.609v-30.691c0-2.945348-.67366-5.224825-2.021-6.8385s-3.399653-2.4205-6.157-2.4205c-2.005343 0-3.885325.454329-5.64 1.363s-3.415325 2.146325-4.982 3.713v34.874h-11.609v-48.222h7.097c1.504008 0 2.490998.704993 2.961 2.115z" fill="#fff"/><path d="m400 368h154.580885" stroke="#0d1c30" stroke-linecap="square" stroke-width="6"/><path d="m601 368h41.012193" stroke="#0d1c30" stroke-linecap="square" stroke-width="6"/><path d="m24 6c-9.9342915 0-18 8.0657085-18 18s8.0657085 18 18 18 18-8.0657085 18-18-8.0657085-18-18-18zm0-6c13.248 0 24 10.752 24 24s-10.752 24-24 24-24-10.752-24-24 10.752-24 24-24z" fill="#949393" fill-rule="nonzero" transform="translate(641 344)"/><g transform="translate(377 344)"><path d="m0 0h48v48h-48z"/><path d="m0 24c0 13.248 10.752 24 24 24s24-10.752 24-24-10.752-24-24-24-24 10.752-24 24z" fill="#78af37"/><path d="m20 29.6-5.6-5.6-1.8666667 1.8666667 7.4666667 7.4666666 16-16-1.8666667-1.8666666z" fill="#fff"/></g><g transform="translate(465 344)"><path d="m0 0h48v48h-48z"/><path d="m0 24c0 13.248 10.752 24 24 24s24-10.752 24-24-10.752-24-24-24-24 10.752-24 24z" fill="#78af37"/><path d="m20 29.6-5.6-5.6-1.8666667 1.8666667 7.4666667 7.4666666 16-16-1.8666667-1.8666666z" fill="#fff"/></g><g transform="translate(553 344)"><path d="m24 48c-13.254834 0-24-10.745166-24-24s10.745166-24 24-24 24 10.745166 24 24-10.745166 24-24 24zm0-7c9.3888407 0 17-7.6111593 17-17s-7.6111593-17-17-17-17 7.6111593-17 17 7.6111593 17 17 17zm-23.57362156-21.4971516c-1.89634971 9.9410133 2.64695736 20.0033231 11.35790006 25.1549602 8.7109426 5.1516372 19.7173668 4.2854128 27.5151697-2.1654908s10.7110823-17.1000594 7.2829627-26.6220279c-3.4281196-9.52196845-12.4608673-15.8702899-22.5811384-15.8702899v7c7.1685253 0 13.5667216 4.4967277 15.994973 11.2414554 2.4282514 6.7447276.3646785 14.2878797-5.1587652 18.8572697-5.5234438 4.5693901-13.3196609 5.1829657-19.4899119 1.5338894-6.17025107-3.6490763-9.38842692-10.7765458-8.04517921-17.8180968z" fill="#a7c7f2" fill-rule="nonzero"/><circle cx="24" cy="24" fill="#60a6d9" r="6"/><path d="m.42637844 19.5028484c-1.89634971 9.9410133 2.64695736 20.0033231 11.35790006 25.1549602 8.7109426 5.1516372 19.7173668 4.2854128 27.5151697-2.1654908s10.7110823-17.1000594 7.2829627-26.6220279c-3.4281196-9.52196845-12.4608673-15.8702899-22.5811384-15.8702899v7c7.1685253 0 13.5667216 4.4967277 15.994973 11.2414554 2.4282514 6.7447276.3646785 14.2878797-5.1587652 18.8572697-5.5234438 4.5693901-13.3196609 5.1829657-19.4899119 1.5338894-6.17025107-3.6490763-9.38842692-10.7765458-8.04517921-17.8180968z" fill="#1d7dcf" fill-rule="nonzero"/></g></g></svg>