<?xml version="1.0" encoding="UTF-8"?>
<svg width="800px" height="500px" viewBox="0 0 800 500" version="1.1" xmlns="http://www.w3.org/2000/svg" xmlns:xlink="http://www.w3.org/1999/xlink">
    <!-- Generator: Sketch 49.3 (51167) - http://www.bohemiancoding.com/sketch -->
    <title>hudl</title>
    <desc>Created with Sketch.</desc>
    <defs></defs>
    <g id="hudl" stroke="none" stroke-width="1" fill="none" fill-rule="evenodd">
        <polygon id="bg" fill="#FF6300" points="0 500 800.001 500 800.001 0 0 0"></polygon>
        <polygon id="path-8" fill="#FF5900" points="284.9999 110.521 254.5619 122 -9.99999993e-05 218 -9.99999993e-05 117 284.9999 64.377 413.8899 40.579 444.1679 50.496"></polygon>
        <polygon id="path-7" fill="#FF6C00" points="583.0663 95.9896 444.1683 50.4956 524.7353 20.1116 583.0663 9.3416 633.6598 -0.0002 799.8676 -0.0002 799.8676 167 638.6596 114.199 583.0668 95.9898"></polygon>
        <polygon id="path-6" fill="#FF5C00" points="188.9999 352.4375 425.6459 428.1105 193.9999 499.9995 188.9999 499.9995 -9.99999993e-05 500 -9.99999993e-05 292 188.9999 352.438"></polygon>
        <polygon id="path-5" fill="#FF5000" points="285 -0.0004 290 -0.0004 413.89 40.5786 285 64.3766 -9.99999993e-05 117 -9.99999993e-05 0 284.9999 0"></polygon>
        <polygon id="path-4" fill="#FF6000" points="583.0665 9.34185539 524.7358 20.1118 578.0668 -0.0002 583.0668 -0.0002 633.6595 0 583.0665 9.342"></polygon>
        <polygon id="path-3" fill="#FF5800" points="524.7357 20.1118 578.0667 -0.0002 289.9997 -0.0002 413.8897 40.5788"></polygon>
        <polygon id="path-2" fill="#FF5900" points="799.7816 500 650.4613 500 425.6463 428.11 655.4613 356.789 799.7816 312"></polygon>
        <polygon id="path-1" fill="#FF5200" points="193.9999 500 650.4609 500 425.6459 428.11"></polygon>
        <g id="logo" transform="translate(175.000000, 175.000000)" fill="#FFFFFF">
            <path d="M109.25457,88.7385 C109.13357,88.7385 109.01557,88.6915 108.92757,88.606 C108.80057,88.483 108.75257,88.3 108.80607,88.129 C111.47107,79.507 112.35207,70.594 111.42707,61.639 C111.40857,61.4745 111.30707,61.331 111.15657,61.261 C102.30457,57.148 96.5700699,48.2005 96.5480699,38.4675 C96.5385699,35.141 97.1675699,31.9095 98.4180699,28.861 C98.4810699,28.707 98.4585699,28.53 98.3555699,28.397 C96.8845699,26.4705 95.2565699,24.561 93.5185699,22.725 C83.9125699,12.5735 71.0165699,5.569 57.2040699,3.0025 C56.9850699,2.961 56.8270699,2.777 56.8195699,2.5545 C56.8125699,2.3355 56.9610699,2.137 57.1725699,2.0825 C62.5670699,0.7005 68.0550699,0 73.4880699,0 C88.4130699,0 102.50307,4.893 114.23507,14.1515 C114.32007,14.2175 114.42307,14.2525 114.52757,14.2525 C114.57357,14.2525 114.62157,14.246 114.66557,14.2315 C116.86157,13.5565 119.29307,13.197 121.70057,13.1915 C135.59907,13.1915 146.93757,24.474 146.97457,38.3415 C146.99107,45.2715 144.08707,51.9835 139.00707,56.758 C138.89507,56.862 138.84157,57.0135 138.86207,57.1635 C139.26307,60.1285 139.46507,63.094 139.46507,65.978 C139.46507,66.2525 139.44657,66.523 139.42857,66.7935 L139.39507,67.3095 C139.39157,67.419 139.35507,67.517 139.29207,67.5925 C131.47757,77.2925 121.14507,84.595 109.41107,88.712 L109.25457,88.7385 Z M26.6865699,112.212 C26.5575699,112.212 26.4380699,112.1625 26.3500699,112.0715 C14.2000699,99.6725 7.50956988,83.303 7.50956988,65.978 C7.50956988,63.083 7.71356988,60.118 8.11456988,57.1665 C8.13456988,57.0155 8.08156988,56.8635 7.96906988,56.76 C2.88956988,51.9845 -0.0164301157,45.2715 6.98842664e-05,38.342 C0.0365698843,24.474 11.3460699,13.1915 25.2115699,13.1915 C27.6280699,13.197 30.0210699,13.542 32.3215699,14.2175 L32.4540699,14.237 C32.5590699,14.237 32.6620699,14.202 32.7465699,14.135 C35.6140699,11.8635 38.6280699,9.8515 41.7070699,8.1555 C41.7750699,8.118 41.8540699,8.098 41.9335699,8.098 C54.3330699,10.0325 65.8370699,15.3495 75.2705699,23.479 C75.4065699,23.5955 75.4635699,23.776 75.4210699,23.948 C75.3770699,24.1225 75.2410699,24.256 75.0660699,24.2955 C66.1260699,26.325 57.8570699,30.0905 50.4855699,35.488 C50.3510699,35.586 50.2775699,35.749 50.2940699,35.9155 C50.3860699,36.821 50.4305699,37.656 50.4285699,38.4675 C50.3955699,50.925 41.0690699,61.6215 28.7335699,63.3485 C28.5660699,63.3715 28.4245699,63.482 28.3620699,63.6365 C27.4775699,65.804 26.6900699,68.047 26.0225699,70.3025 C22.0480699,83.689 22.4415699,98.35 27.1315699,111.584 C27.2050699,111.7935 27.1240699,112.0225 26.9345699,112.1415 C26.8610699,112.1875 26.7745699,112.212 26.6865699,112.212 Z M73.7365699,146.7885 C64.7115699,146.7885 56.3210699,141.9305 51.8375699,134.1095 C50.6530699,132.0465 49.7645699,129.811 49.1980699,127.4645 C49.1615699,127.3165 49.0565699,127.195 48.9165699,127.138 C45.5640699,125.786 42.3380699,124.174 39.3290699,122.347 C39.2405699,122.2935 39.1710699,122.211 39.1340699,122.1135 C34.6610699,110.509 33.5155699,97.9255 35.8160699,85.724 C35.8490699,85.5485 35.9760699,85.4085 36.1470699,85.359 L36.2410699,85.3555 C36.4395699,85.3555 36.5445699,85.408 36.6215699,85.4905 C42.8455699,92.1965 50.2280699,97.459 58.5650699,101.133 C58.6255699,101.1595 58.6900699,101.1725 58.7545699,101.1725 C58.8520699,101.1725 58.9475699,101.143 59.0285699,101.084 C59.7715699,100.5515 60.4740699,100.0975 61.1730699,99.6955 C64.9800699,97.5125 69.3005699,96.3585 73.6645699,96.3585 C81.3745699,96.3585 88.8085699,99.9795 93.5480699,106.0445 C93.6380699,106.1595 93.7760699,106.2255 93.9195699,106.2255 L93.9840699,106.221 C96.2810699,105.9075 98.6170699,105.468 100.92707,104.916 C114.52607,101.6625 127.03957,93.9805 136.16207,83.2855 C136.25007,83.1805 136.38257,83.121 136.52057,83.121 C136.59807,83.121 136.67307,83.14 136.74507,83.177 C136.93807,83.281 137.03357,83.5035 136.97507,83.7175 C131.54957,103.166 117.16707,119.36 98.5010699,127.036 C98.3595699,127.094 98.2565699,127.216 98.2215699,127.3635 C96.6195699,134.1425 92.2570699,140.004 86.2540699,143.445 C82.4360699,145.633 78.1080699,146.7885 73.7365699,146.7885 Z" id="logomark"></path>
            <path d="M421.3905,127.1785 L449.6055,127.1785 L449.6055,13 L421.3905,13 L421.3905,127.1785 Z M378.2155,106.67 C377.2005,107.1065 375.3105,107.2515 373.4205,107.2515 C365.4205,107.2515 361.0555,100.9975 361.0555,87.616 C361.0555,76.271 365.2705,68.853 373.1255,68.853 C375.1655,68.853 377.3455,69.2895 378.2155,69.726 L378.2155,106.67 Z M378.2155,49.2175 C376.1805,48.6355 372.6905,48.054 369.9255,48.054 C345.3455,48.054 332.8355,63.6165 332.8355,87.9065 C332.8355,114.815 347.2355,129.069 374.0005,129.069 C387.8155,129.069 399.7455,126.5965 406.4355,123.2515 L406.4355,13.0005 L378.2155,13.0005 L378.2155,49.2175 Z M292.9575,105.506 C291.794,105.943 289.6125,106.2335 286.994,106.2335 C281.758,106.2335 278.9945,104.052 278.9945,99.1065 L278.9945,48.781 L250.777,48.781 L250.777,98.379 C250.777,120.342 262.8495,129.069 286.994,129.069 C300.0845,129.069 313.6105,126.742 321.1755,123.251 L321.1755,48.781 L292.9575,48.781 L292.9575,105.506 Z M210.1805,47.472 C205.235,47.472 200.29,48.49 196.2175,50.09 L196.2175,13 L168,13 L168,127.1785 L196.2175,127.1785 L196.2175,70.453 C197.8175,69.7255 199.999,69.289 202.1805,69.289 C208.144,69.289 210.762,72.1985 210.762,77.58 L210.762,127.1785 L238.9795,127.1785 L238.9795,74.5255 C238.9795,57.0715 229.089,47.472 210.1805,47.472 Z" id="wordmark"></path>
        </g>
    </g>
</svg>