<?xml version="1.0" encoding="utf-8"?>
<!-- Generator: Adobe Illustrator 17.1.0, SVG Export Plug-In . SVG Version: 6.00 Build 0)  -->
<!DOCTYPE svg PUBLIC "-//W3C//DTD SVG 1.1//EN" "http://www.w3.org/Graphics/SVG/1.1/DTD/svg11.dtd">
<svg version="1.1" id="Layer_1" xmlns="http://www.w3.org/2000/svg" xmlns:xlink="http://www.w3.org/1999/xlink" x="0px" y="0px"
	 viewBox="-0.8 428.6 596 641.2" enable-background="new -0.8 428.6 596 641.2" xml:space="preserve">
<path fill="#FFFFFF" d="M587,883.9c-3.1-7.6-6.6-15.9-9.7-23.1c-5.2-11.4-10.3-22.4-14.8-32.8l-0.7-0.7
	c-44.1-96.2-91.7-193.8-141.7-290.1l-2.1-3.8c-5.2-9.7-10.3-20-15.5-30c-6.6-11.4-12.8-23.8-23.1-35.2c-20.7-25.5-50-39.7-81.4-39.7
	c-32.1,0-61,14.1-82.1,38.6c-9.7,11.4-16.6,23.8-23.1,35.2c-5.2,10.3-10.3,20.7-15.5,30l-2.1,3.8c-49.3,96.2-97.6,193.8-141.7,290.1
	l-0.7,1.4c-4.5,10.3-9.7,21-14.8,32.8c-3.1,6.9-6.6,14.8-9.7,23.1c-8.3,23.8-11,46.2-7.6,69.3c6.9,47.9,39,88.6,83.5,106.6
	c16.6,6.9,34.1,10.3,52.1,10.3c5.2,0,11.4-0.7,16.6-1.4c21-2.4,43.1-9.7,64.1-21.7c26.2-14.8,51.4-35.9,79.7-66.6
	c28.3,30.7,53.8,52.1,79.7,66.6c21,12.1,43.1,19.3,64.1,21.7c5.2,0.7,11.4,1.4,16.6,1.4c17.9,0,35.9-3.1,52.1-10.3
	c44.8-17.9,76.2-59,83.5-106.6C597.7,930.1,595.3,907.7,587,883.9z M297.6,917.4c-34.5-43.5-57.3-84.5-64.8-119.3
	c-3.1-14.8-3.8-27.6-2.1-39c1.4-10.3,5.2-19.3,10.3-26.9c12.1-17.2,32.8-28.3,56.6-28.3c23.8,0,44.8,10.3,56.6,28.3
	c5.2,7.6,9,16.6,10.3,26.9c2.1,11.4,1.4,25.2-2.1,39C354.5,831.8,332.1,872.9,297.6,917.4z M553.5,947.4
	c-4.5,33.5-26.9,62.1-58.3,75.2c-15.5,6.6-32.1,8.3-48.6,6.6c-15.9-2.1-32.1-6.9-48.6-16.6c-23.1-12.8-46.2-32.8-73.1-62.1
	c42.4-52.1,67.9-99.3,77.6-141.7c4.5-20,5.2-37.9,3.1-54.5c-2.4-15.9-8.3-30.7-17.2-43.5c-20-29-53.1-45.5-90.4-45.5
	s-70.7,17.2-90.4,45.5c-9,12.8-14.8,27.6-17.2,43.5c-2.4,16.6-2.1,35.2,3.1,54.5c9.7,42.4,35.9,90.4,77.6,142.4
	c-26.2,29.7-50,49.3-73.1,62.1c-16.6,9.7-32.8,14.8-48.6,16.6c-17.2,2.1-34.1-0.7-48.6-6.6c-31.4-12.8-53.8-41.7-58.3-75.2
	c-2.1-15.9-0.7-32.1,5.9-50c2.1-6.6,5.2-12.8,8.3-20.7c4.5-10.3,9.7-21,14.8-32.1l0.7-1.4c44.1-95.5,91.7-193.1,141.1-288l2.1-3.8
	c5.2-9.7,10.3-20,15.5-29.7c5.2-10.3,11-20,17.9-28.3c13.5-15.5,31.4-23.8,51.4-23.8c20,0,37.9,8.3,51.4,23.8
	c6.9,8.3,12.8,17.9,17.9,28.3c5.2,9.7,10.3,20,15.5,29.7l2.1,3.8c48.6,95.5,96.2,193.1,140.4,288.7v0.7c5.2,10.3,9.7,21.7,14.8,32.1
	c3.1,7.6,6.6,14.1,8.3,20.7C554.2,914.6,556,930.8,553.5,947.4z"/>
</svg>
