<?xml version="1.0" encoding="utf-8"?>
<!-- Generator: Adobe Illustrator 17.1.0, SVG Export Plug-In . SVG Version: 6.00 Build 0)  -->
<!DOCTYPE svg PUBLIC "-//W3C//DTD SVG 1.1//EN" "http://www.w3.org/Graphics/SVG/1.1/DTD/svg11.dtd">
<svg version="1.1" id="Layer_1" xmlns="http://www.w3.org/2000/svg" xmlns:xlink="http://www.w3.org/1999/xlink" x="0px" y="0px"
	 viewBox="0 0 150.6 150.6" enable-background="new 0 0 150.6 150.6" xml:space="preserve">
<g>
	<path fill="#F47623" d="M75.3,0C33.7,0,0,33.7,0,75.3c0,41.6,33.7,75.3,75.3,75.3c41.6,0,75.3-33.7,75.3-75.3
		C150.6,33.7,116.9,0,75.3,0z M75.3,144.6C37.1,144.6,6,113.5,6,75.3C6,37.1,37.1,6,75.3,6c38.2,0,69.3,31.1,69.3,69.3
		C144.6,113.5,113.5,144.6,75.3,144.6z"/>
	<polygon fill="#F47623" points="64.5,96.2 44.3,75.4 38.6,81 58.7,101.8 58.5,101.9 64.1,107.7 120.3,53.2 114.7,47.5 	"/>
</g>
</svg>
