<?xml version="1.0" encoding="utf-8"?>
<!-- Generator: Adobe Illustrator 17.1.0, SVG Export Plug-In . SVG Version: 6.00 Build 0)  -->
<!DOCTYPE svg PUBLIC "-//W3C//DTD SVG 1.1//EN" "http://www.w3.org/Graphics/SVG/1.1/DTD/svg11.dtd">
<svg version="1.1" id="Layer_1" xmlns="http://www.w3.org/2000/svg" xmlns:xlink="http://www.w3.org/1999/xlink" x="0px" y="0px"
	 viewBox="0 0 966 315.5" enable-background="new 0 0 966 315.5" xml:space="preserve">
<path fill="#FF6C0C" d="M158.5,315.5c-19.4,0-37.4-10.4-47.1-27.3c-2.5-4.4-4.5-9.2-5.7-14.3c-0.1-0.3-0.3-0.6-0.6-0.7
	c-7.2-2.9-14.1-6.4-20.6-10.3c-0.2-0.1-0.3-0.3-0.4-0.5c-9.6-24.9-12.1-52-7.1-78.2c0.1-0.4,0.3-0.7,0.7-0.8c0.1,0,0.1,0,0.2,0
	c0.4,0,0.7,0.1,0.8,0.3c13.4,14.4,29.2,25.7,47.2,33.6c0.1,0.1,0.3,0.1,0.4,0.1c0.2,0,0.4-0.1,0.6-0.2c1.6-1.1,3.1-2.1,4.6-3
	c8.2-4.7,17.5-7.2,26.8-7.2c16.6,0,32.5,7.8,42.7,20.8c0.2,0.2,0.5,0.4,0.8,0.4c0,0,0.1,0,0.1,0c4.9-0.7,10-1.6,14.9-2.8
	c29.2-7,56.1-23.5,75.7-46.5c0.2-0.2,0.5-0.4,0.8-0.4c0.2,0,0.3,0,0.5,0.1c0.4,0.2,0.6,0.7,0.5,1.2c-11.7,41.8-42.6,76.6-82.7,93.1
	c-0.3,0.1-0.5,0.4-0.6,0.7c-3.4,14.6-12.8,27.2-25.7,34.6C177.2,313,167.9,315.5,158.5,315.5z M57.4,241.2c-0.3,0-0.5-0.1-0.7-0.3
	c-26.1-26.6-40.5-61.8-40.5-99.1c0-6.2,0.4-12.6,1.3-18.9c0-0.3-0.1-0.7-0.3-0.9C6.2,111.7,0,97.3,0,82.4
	c0.1-29.8,24.4-54.1,54.2-54.1c5.2,0,10.3,0.8,15.3,2.2c0.1,0,0.2,0,0.3,0c0.2,0,0.4-0.1,0.6-0.2c6.2-4.9,12.6-9.2,19.3-12.9
	c0.1-0.1,0.3-0.1,0.5-0.1c26.7,4.2,51.4,15.6,71.7,33.1c0.3,0.3,0.4,0.6,0.3,1c-0.1,0.4-0.4,0.7-0.8,0.7
	c-19.2,4.4-37,12.5-52.8,24.1c-0.3,0.2-0.4,0.6-0.4,0.9c0.2,1.9,0.3,3.7,0.3,5.5c-0.1,26.8-20.1,49.8-46.6,53.5
	c-0.4,0-0.7,0.3-0.8,0.6c-1.9,4.7-3.6,9.5-5,14.3c-8.5,28.8-7.7,60.3,2.4,88.7c0.2,0.5,0,0.9-0.4,1.2
	C57.7,241.1,57.5,241.2,57.4,241.2z M234.8,190.7c-0.3,0-0.5-0.1-0.7-0.3c-0.3-0.3-0.4-0.7-0.3-1c5.7-18.5,7.6-37.7,5.6-56.9
	c0-0.4-0.3-0.7-0.6-0.8c-19-8.8-31.4-28.1-31.4-49c0-7.1,1.3-14.1,4-20.6c0.1-0.3,0.1-0.7-0.1-1c-3.2-4.1-6.7-8.2-10.4-12.2
	C180.4,27,152.6,12,123,6.5c-0.5-0.1-0.8-0.5-0.8-1c0-0.5,0.3-0.9,0.8-1C134.5,1.5,146.3,0,158,0c32.1,0,62.4,10.5,87.6,30.4
	c0.2,0.1,0.4,0.2,0.6,0.2c0.1,0,0.2,0,0.3,0c4.7-1.5,9.9-2.2,15.1-2.2c29.9,0,54.2,24.2,54.3,54.1c0,14.9-6.2,29.3-17.1,39.6
	c-0.2,0.2-0.4,0.5-0.3,0.9c0.9,6.4,1.3,12.7,1.3,18.9c0,0.6,0,1.2-0.1,1.8l-0.1,1.1c0,0.2-0.1,0.4-0.2,0.6
	c-16.8,20.8-39,36.5-64.2,45.4L234.8,190.7z"/>
<path fill="#FFFFFF" d="M451.3,102.3c-10.6,0-21.3,2.2-30,5.6V28.2h-60.6v245.4h60.6V151.7c3.4-1.6,8.1-2.5,12.8-2.5
	c12.8,0,18.4,6.3,18.4,17.8v106.6h60.6V160.5C513.2,123,492,102.3,451.3,102.3z M629.3,227.1c-2.5,0.9-7.2,1.6-12.8,1.6
	c-11.3,0-17.2-4.7-17.2-15.3V105.1h-60.6v106.6c0,47.2,25.9,66,77.8,66c28.1,0,57.2-5,73.5-12.5V105.1h-60.6V227.1z M812.5,106.1
	c-4.4-1.3-11.9-2.5-17.8-2.5c-52.8,0-79.7,33.5-79.7,85.7c0,57.8,30.9,88.5,88.5,88.5c29.7,0,55.3-5.3,69.7-12.5v-237h-60.6V106.1z
	 M812.5,229.6c-2.2,0.9-6.3,1.2-10.3,1.2c-17.2,0-26.6-13.4-26.6-42.2c0-24.4,9.1-40.3,25.9-40.3c4.4,0,9.1,0.9,10.9,1.9V229.6z
	 M905.3,28.2v245.4H966V28.2H905.3z"/>
</svg>
