<?xml version="1.0" encoding="utf-8"?>
<!-- Generator: Adobe Illustrator 17.1.0, SVG Export Plug-In . SVG Version: 6.00 Build 0)  -->
<!DOCTYPE svg PUBLIC "-//W3C//DTD SVG 1.1//EN" "http://www.w3.org/Graphics/SVG/1.1/DTD/svg11.dtd">
<svg version="1.1" id="Layer_1" xmlns="http://www.w3.org/2000/svg" xmlns:xlink="http://www.w3.org/1999/xlink" x="0px" y="0px"
	 viewBox="0 196.9 595.3 530.3" enable-background="new 0 196.9 595.3 530.3" xml:space="preserve">
<path fill="#FFFFFF" d="M0,237.6c14.6-32.7,40.8-41,74.8-40.6c151.6,1.2,303,0.6,454.6,0.4c17.4,0,35.8-0.2,47.9,13.9
	c8.1,9.5,16.6,22.4,16.8,33.8c0.8,73.6,3.2,147.6-2.6,220.7C582,586.5,490.2,688.5,372.3,717.8C204,760.1,38.8,655.2,5.7,484.8
	C3.2,472.7,1.8,460.3,0,448C0,377.9,0,307.7,0,237.6L0,237.6z M298.8,466c-7.9-7.3-15-13.3-21.6-19.8c-29.7-28.3-59-56.8-88.7-84.9
	c-19.4-18.2-43.1-17.8-60.2,0c-16.2,16.8-16.2,42,1.6,59.2c46.1,44.7,92.4,88.9,139.1,132.8c18.8,17.8,38.8,19,57.4,1.6
	c48.3-44.9,96.2-90.2,142.7-136.8c23.6-23.6,10.1-62.1-22.4-69.3c-16.8-3.6-29.7,4.2-41.2,15.6C370.1,398.1,334.7,431.4,298.8,466
	L298.8,466z"/>
</svg>
