<?xml version="1.0" encoding="utf-8"?>
<!-- Generator: Adobe Illustrator 17.1.0, SVG Export Plug-In . SVG Version: 6.00 Build 0)  -->
<!DOCTYPE svg PUBLIC "-//W3C//DTD SVG 1.1//EN" "http://www.w3.org/Graphics/SVG/1.1/DTD/svg11.dtd">
<svg version="1.1" id="Layer_1" xmlns="http://www.w3.org/2000/svg" xmlns:xlink="http://www.w3.org/1999/xlink" x="0px" y="0px"
	 viewBox="0 0 150.6 150.6" enable-background="new 0 0 150.6 150.6" xml:space="preserve">
<g>
	<path fill="#F47623" d="M75.3,0C33.7,0,0,33.7,0,75.3c0,41.6,33.7,75.3,75.3,75.3c41.6,0,75.3-33.7,75.3-75.3
		C150.6,33.7,116.9,0,75.3,0z M75.3,144.6C37.1,144.6,6,113.5,6,75.3C6,37.1,37.1,6,75.3,6c38.2,0,69.3,31.1,69.3,69.3
		C144.6,113.5,113.5,144.6,75.3,144.6z"/>
	<path fill="#F47623" d="M75,35.8c-15.3,0-23.8,9.4-23.9,24.4h6.6c-0.2-10.9,5.5-18.8,17-18.8c8.2,0,15.1,5.8,15.1,14.2
		c0,5.5-3,9.9-6.9,13.6c-8,7.4-10.3,10.9-10.7,21.1H79c0.4-9.2,0.2-9,8.3-17.1c5.4-5.1,9.2-10.1,9.2-17.9
		C96.4,43.1,86.7,35.8,75,35.8z"/>
	<path fill="#F47623" d="M75.3,102.4c-3.3,0-6,2.7-6,6c0,3.3,2.7,6,6,6c3.3,0,6-2.7,6-6C81.3,105.1,78.6,102.4,75.3,102.4z"/>
</g>
</svg>
